<svg height="512" width="512" xmlns="http://www.w3.org/2000/svg" data-name="Layer 1">
	<path
		d="M175.14 205.43h-33.85a10.541 10.541 0 00-4.74 19.96 10.355 10.355 0 004.74 1.13h33.85a10.434 10.434 0 004.73-1.12 10.633 10.633 0 002.72-1.97 10.543 10.543 0 00-7.45-18z"
		fill="#edb740" />
	<path
		d="M184.01 248.25l-3.46 6.96h-49.33c1.56-9.66 3.62-18.71 5.33-29.82a10.355 10.355 0 004.74 1.13h33.85a10.434 10.434 0 004.73-1.12c1.31 8.44 2.81 15.65 4.14 22.85z"
		fill="#d8a43d" />
	<path d="M173.66 39.08l-8.71 166.35h-14.24l-7.95-166.35L158.21 26z" fill="#ccd3df" />
	<path d="M359.73 183.18h48.56v17.74h-48.56z" fill="#edb740" />
	<path d="M406.74 255.21h-45.35c1.17-19.17 2.01-34.74 2.26-54.29h39.89c.49 19.44 1.81 35.05 3.2 54.29z"
		fill="#d8a43d" />
	<path
		d="M363.46 161.66h40.17c-.17 4.56-.26 16.84-.28 21.52H363.7c-.04-4.67-.12-16.96-.24-21.52zM355.99 98.75v55.76c-5.15-2.29-31.72-2.11-36.44 0V98.75c4.72 2.1 31.29 2.28 36.44 0zM448.47 98.75v55.76c-4.71-2.11-31.28-2.29-36.43 0V98.75c5.15 2.28 31.72 2.1 36.43 0z"
		fill="#b0b5ca" />
	<g fill="#ccd3df">
		<path
			d="M476.5 98.78v55.7a14.015 14.015 0 01-28.03.03V98.75a14.015 14.015 0 0128.03.03zM355.99 91.6h56.05v70.06h-56.05zM319.55 98.78v55.73a14.01 14.01 0 01-28.02-.03v-55.7a14.01 14.01 0 0128.02-.03zM39.33 116.22h87.88c0 54.07-8.83 103.82-19.03 138.99-5.54 19.11-11.49 33.91-16.64 42.76H75c-4.29-6.74-9.14-17.99-13.84-32.63-11.33-35.25-21.83-90.16-21.83-149.12z" />
	</g>
	<path
		d="M61.16 265.34h-.01a38.826 38.826 0 00-12.61 25.54l-4.25 50.33a38.973 38.973 0 0122.62-28.06L75 297.97c-4.29-6.74-9.14-17.99-13.84-32.63z"
		fill="#4a5160" />
	<path
		d="M463.46 290.88a38.949 38.949 0 00-38.8-35.67H108.18c-5.54 19.11-11.49 33.91-16.64 42.76l4.09 11.94h333.89a38.948 38.948 0 0138.18 31.25z"
		fill="#6d7486" />
	<path
		d="M476.36 443.78l-7.18-85.14H42.82l-7.18 85.14A38.944 38.944 0 0074.44 486h363.12a38.944 38.944 0 0038.8-42.22z"
		fill="#5fa8ed" />
	<path d="M66.91 320.93v-7.78a38.973 38.973 0 00-22.62 28.06l-1.47 17.43h51.9l.39-37.71z" fill="#5fa8ed" />
	<path
		d="M467.7 341.16a38.948 38.948 0 00-38.18-31.25H94.63l-1.22 48.73h375.77zM65.64 443.78l7.18-85.14h-30l-7.18 85.14A38.944 38.944 0 0074.44 486h30a38.944 38.944 0 01-38.8-42.22z"
		fill="#4689d3" />
	<path
		d="M81.16 265.34c-11.33-35.25-21.83-90.16-21.83-149.12h-20c0 58.96 10.5 113.87 21.83 149.12 4.7 14.64 9.55 25.89 13.84 32.63h16.54c.546-.939 1.1-1.959 1.666-3.03-3.823-6.864-7.99-16.966-12.046-29.6z"
		fill="#b0b5ca" />
	<path d="M185.9 309.91h140.2v128.56H185.9z" fill="#fea92a" />
	<path d="M66.91 297.97h32.72v22.96H66.91z" fill="#edb740" />
	<path d="M98.41 358.64H67.72c1.98-14.79 3.39-26.72 3.39-37.71h24.24c0 11.05 1.18 22.92 3.06 37.71z" fill="#d8a43d" />
	<path
		d="M412.041 167.662a6 6 0 006-6v-2.3a147.309 147.309 0 0125.084.09 20 20 0 0039.376-4.971v-55.7a20 20 0 00-39.376-4.97 147.832 147.832 0 01-25.084.1V91.6a6 6 0 00-6-6h-56.054a6 6 0 00-6 6v2.3a147.1 147.1 0 01-25.084-.09 20 20 0 00-39.377 4.97v55.7a20 20 0 0039.374 4.97 147.625 147.625 0 0125.084-.1v2.31a6 6 0 006 6h1.575c.038 3.145.07 6.777.094 9.892a6 6 0 00-3.923 5.623v17.745a6 6 0 003.825 5.587c-.3 15.377-.966 28.414-1.82 42.707H335.17l-8.663-17.423a44.93 44.93 0 00-42.407-30.075h-56.19a44.929 44.929 0 00-37.141 19.642 16.5 16.5 0 00-15.628-21.93h-3.871L179.653 39.4a6 6 0 00-2.113-4.891l-15.449-13.087a6 6 0 00-7.756 0l-15.449 13.084a6 6 0 00-2.115 4.864l7.645 160.058h-3.126a16.522 16.522 0 00-11.251 28.643c-.762 4.581-1.574 8.855-2.366 13.022a749.375 749.375 0 00-1.51 8.121h-10.08a442.312 442.312 0 004.645-18.953 533.643 533.643 0 0012.486-114.039 6 6 0 00-6-6H39.333a6 6 0 00-6 6c0 58.763 9.971 111.967 20.992 147.452a44.78 44.78 0 00-11.764 26.7l-12.9 152.9A44.941 44.941 0 0074.444 492h363.112a44.941 44.941 0 0044.783-48.722l-12.9-152.9a45.217 45.217 0 00-44.784-41.164h-12.34l-.241-3.275c-1-13.579-1.877-25.54-2.355-39.2a6 6 0 004.576-5.823v-17.739a6 6 0 00-4.906-5.9c.027-3.178.063-6.643.109-9.619zm42.434-68.349a5.967 5.967 0 00.02-.946 8.008 8.008 0 0116.006.41v55.7a8.013 8.013 0 11-16.026 0zm-36.434 6.572c3.639.357 7.926.536 12.216.536s8.578-.18 12.218-.536v41.489a139.726 139.726 0 00-24.434 0zm-104.488 48.058a5.853 5.853 0 00-.021.946 8.008 8.008 0 01-16.006-.41v-55.7a8.014 8.014 0 0116.027 0zm36.434-6.571a139.726 139.726 0 00-24.434 0v-41.487c3.639.357 7.927.536 12.218.536s8.577-.179 12.216-.536zm12 7.261V99.208a5.81 5.81 0 000-.885V97.6h44.054v1.028a.177.177 0 000 .023v55.4a5.836 5.836 0 000 .887v.727h-44.054zm3.746 40.287v-5.743H402.3v5.743zm34.55 54.294h-32.524c.817-13.761 1.494-27.038 1.793-42.294h28.166c.483 13.972 1.375 26.109 2.389 39.9l.176 2.394zm-30.721-81.552H397.5c-.047 3.121-.083 6.625-.107 9.515h-27.74c-.023-3.01-.053-6.468-.091-9.515zM196.41 236.787a5.89 5.89 0 00.308-.738 32.933 32.933 0 0131.187-22.333H284.1a32.933 32.933 0 0131.187 22.333 5.89 5.89 0 00.308.738l6.178 12.427H190.232zm-8.863-9.908a45.455 45.455 0 00-.991 2.187c-.056-.332-.113-.661-.168-1q.612-.566 1.159-1.187zM158.213 33.862l9.3 7.878-8.26 157.688h-2.825L148.9 41.751zM141.29 211.428h33.846a4.546 4.546 0 110 9.092H141.29a4.546 4.546 0 110-9.092zm36.449 35.958l-.909 1.828h-38.473c.356-1.935.725-3.881 1.1-5.88a673.983 673.983 0 001.993-10.814h33.518c.657 3.774 1.336 7.334 2 10.818.266 1.362.518 2.703.771 4.048zM45.37 122.222h75.808c-.612 50.768-8.884 97.25-18.459 130.529a5.937 5.937 0 00-.463 1.588c-4.712 16.1-9.711 28.992-14.253 37.63h-9.59C74.759 285.45 70.828 275.93 67 264.076a5.987 5.987 0 00-.364-1.126C55.9 229.3 46.045 177.475 45.37 122.222zm48.264 187.7v5.01h-20.72v-10.963h20.72v5.949zm-2.008 42.721H74.558c1.136-8.912 2.074-17.569 2.406-25.711h12.493c.273 7.942 1.059 16.319 2.169 25.707zm-37.108-61.255a32.862 32.862 0 014.447-13.956c2.072 5.636 4.136 10.6 6.138 14.816a6 6 0 00-4.189 5.721v11.468a44.943 44.943 0 00-8.421 5.951zm-4.282 50.758a32.9 32.9 0 0111.247-18.68 6.01 6.01 0 003.5 3.14c-.3 7.366-1.164 15.479-2.526 26.033H49.35zM250 480H74.444a32.943 32.943 0 01-32.826-35.712l6.72-79.649H179.9v73.83a6 6 0 006 6H250zM101.454 326.645a6 6 0 004.18-5.717v-5.02H179.9v36.731h-76.19c-1.158-9.611-1.978-18.076-2.256-25.994zM191.9 432.469V315.908h128.2v116.561zm278.48 11.818A32.943 32.943 0 01437.556 480H262v-35.531h64.1a6 6 0 006-6v-73.83h131.562zm-7.732-91.648H332.1v-36.731h97.425a33.174 33.174 0 0132.242 26.244zm-38-91.425a33.145 33.145 0 0132.827 30.174l2.036 24.136a44.816 44.816 0 00-29.995-11.616H105.634v-5.939a6 6 0 00-4.386-5.774 246.882 246.882 0 0011.407-30.981h312z"
		fill="#284268" />
</svg>